#N canvas 827 239 527 327 12;
#X declare -path dep;
#X obj 590 749 hradio 20 1 0 6 empty empty empty 0 -8 0 10 #191919 #ffffff #ffffff 0;
#X obj 932 1111 vsl 17 128 0 1 0 0 empty empty empty 0 -9 0 10 #191919 #ffffff #ffffff 0 1;
#X msg 590 778 sqnc \$1;
#X obj 754 868 hsl 128 16 1 11 0 0 empty empty empty -2 -8 0 10 #191919 #ffffff #ffffff 0 1;
#X obj 676 812 hsl 128 16 2 512 1 0 empty empty STEPS -2 -6 0 12 #7c7c7c #fcfcfc #808080 0 1;
#X obj 823 931 hsl 128 16 1 11 1 1 empty empty empty -2 -6 0 12 #ffffff #202020 #808080 0 1;
#X msg 673 842 crshr \$1;
#X obj 927 1080 / 100;
#X msg 751 898 fldr \$1;
#X msg 820 963 smthr \$1;
#X obj 673 519 loadbang;
#X obj 849 1028 tgl 25 0 empty empty empty 17 7 0 10 #191919 #ffffff #ffffff 0 1;
#X msg 849 1059 lmtr \$1;
#X msg 673 638 512;
#X msg 751 638 1;
#X msg 890 638 50;
#X obj 673 548 bng 25 250 50 0 empty empty empty 17 7 0 10 #191919 #ffffff #ffffff;
#X obj 1189 49 declare -path dep;
#X obj 159 289 adc~;
#X obj 265 89 hsl 128 17 -15 15 0 0 empty empty empty -2 -8 0 10 #181818 #fcfcfc #fcfcfc 0 1;
#X msg 265 114 highvol \$1, f 11;
#X obj 425 223 hsl 128 17 -15 15 0 0 empty empty empty -2 -8 0 10 #181818 #fcfcfc #fcfcfc 0 1;
#X msg 425 248 midvol \$1, f 11;
#X obj 423 410 hsl 128 17 -15 15 0 0 empty empty empty -2 -8 0 10 #181818 #fcfcfc #fcfcfc 0 1;
#X msg 423 435 lowvol \$1, f 11;
#X msg 668 260 midfreq \$1, f 12;
#X msg 779 316 midq \$1, f 9;
#X obj 265 56 r High @hv_param -15 15 0 db;
#X obj 425 192 r Mid @hv_param -15 15 0 db;
#X obj 423 378 r Low @hv_param -15 15 0 db;
#X obj 668 219 hsl 128 17 313.3 5705.6 1 0 empty empty empty -2 -8 0 10 #000000 #fcfcfc #585858 0 1;
#N canvas 523 290 995 434 stereo_eq_pass 0;
#X obj 292 123 inlet~;
#X obj 433 123 inlet~;
#X obj 649 130 inlet;
#X obj 292 190 wstd.cmpnnts/eq_pass, f 23;
#X obj 653 195 wstd.cmpnnts/eq_pass, f 23;
#X obj 256 321 outlet~;
#X obj 559 326 outlet~;
#X obj 339 321 outlet~;
#X obj 721 332 outlet~;
#X obj 458 326 outlet~;
#X obj 818 332 outlet~;
#X connect 0 0 3 0;
#X connect 1 0 4 0;
#X connect 2 0 3 1;
#X connect 2 0 4 1;
#X connect 3 0 5 0;
#X connect 3 1 9 0;
#X connect 3 2 8 0;
#X connect 4 0 7 0;
#X connect 4 1 6 0;
#X connect 4 2 10 0;
#X restore 166 645 pd stereo_eq_pass;
#X obj 653 87 loadbang;
#X msg 701 125 1337, f 7;
#X msg 653 125 0, f 5;
#X obj 779 260 wstd.cmpnnts/eqmidq;
#X obj 779 288 wstd.cmpnnts/qcalc;
#X obj 668 188 r Mid_Freq @hv_param 313.3 5705.6 1337 log_hz;
#X obj 205 749 throw~ MidL;
#X obj 224 777 throw~ MidR;
#X obj 244 805 throw~ LowL;
#X obj 264 834 throw~ LowR;
#X obj 166 1709 dac~ 1 2;
#X obj 166 1609 catch~ L;
#X obj 246 1609 catch~ R;
#X msg 927 1264 mix \$1;
#X obj 590 718 r High_Sqnc @hv_param 0 5 0 int;
#X obj 673 778 r High_Crshr @hv_param 2 512 512 int;
#X obj 751 842 r High_Fldr @hv_param 1 13.37 1;
#X obj 820 898 r High_Smthr @hv_param 1 13.37 1;
#X obj 849 999 r High_Lmtr @hv_param 0 1 1 bool;
#X obj 927 1051 r High_Mix @hv_param 0 100 50;
#X obj 166 689 throw~ HighL;
#X obj 185 719 throw~ HighR;
#X obj 469 1379 throw~ L;
#X obj 601 1379 throw~ R;
#X obj 469 1339 wstd.cmpnnts/manglr_st;
#X obj 469 1269 catch~ HighL;
#X obj 535 1299 catch~ HighR;
#X obj 1316 749 hradio 20 1 0 6 empty empty empty 0 -8 0 10 #191919 #ffffff #ffffff 0;
#X obj 1658 1111 vsl 17 128 0 1 0 0 empty empty empty 0 -9 0 10 #191919 #ffffff #ffffff 0 1;
#X msg 1316 778 sqnc \$1;
#X obj 1480 868 hsl 128 16 1 11 0 0 empty empty empty -2 -8 0 10 #191919 #ffffff #ffffff 0 1;
#X obj 1402 812 hsl 128 16 2 512 1 0 empty empty STEPS -2 -6 0 12 #7c7c7c #fcfcfc #808080 0 1;
#X obj 1549 931 hsl 128 16 1 11 1 1 empty empty empty -2 -6 0 12 #ffffff #202020 #808080 0 1;
#X msg 1399 842 crshr \$1;
#X obj 1653 1080 / 100;
#X msg 1477 898 fldr \$1;
#X msg 1546 963 smthr \$1;
#X obj 1399 519 loadbang;
#X obj 1575 1028 tgl 25 0 empty empty empty 17 7 0 10 #191919 #ffffff #ffffff 0 1;
#X msg 1575 1059 lmtr \$1;
#X msg 1399 638 512;
#X msg 1477 638 1;
#X msg 1616 638 50;
#X obj 1399 548 bng 25 250 50 0 empty empty empty 17 7 0 10 #191919 #ffffff #ffffff;
#X msg 1653 1264 mix \$1;
#X obj 1195 1379 throw~ L;
#X obj 1327 1379 throw~ R;
#X obj 1195 1339 wstd.cmpnnts/manglr_st;
#X obj 1316 718 r Mid_Sqnc @hv_param 0 5 0 int;
#X obj 1399 778 r Mid_Crshr @hv_param 2 512 512 int;
#X obj 1477 842 r Mid_Fldr @hv_param 1 13.37 1;
#X obj 1546 898 r Mid_Smthr @hv_param 1 13.37 1;
#X obj 1575 999 r Mid_Lmtr @hv_param 0 1 1 bool;
#X obj 1653 1051 r Mid_Mix @hv_param 0 100 50;
#X obj 1195 1269 catch~ MidL;
#X obj 1261 1299 catch~ MidR;
#X obj 2056 749 hradio 20 1 0 6 empty empty empty 0 -8 0 10 #191919 #ffffff #ffffff 0;
#X obj 2398 1111 vsl 17 128 0 1 0 0 empty empty empty 0 -9 0 10 #191919 #ffffff #ffffff 0 1;
#X msg 2056 778 sqnc \$1;
#X obj 2220 868 hsl 128 16 1 11 0 0 empty empty empty -2 -8 0 10 #191919 #ffffff #ffffff 0 1;
#X obj 2142 812 hsl 128 16 2 512 1 0 empty empty STEPS -2 -6 0 12 #7c7c7c #fcfcfc #808080 0 1;
#X obj 2289 931 hsl 128 16 1 11 1 1 empty empty empty -2 -6 0 12 #ffffff #202020 #808080 0 1;
#X msg 2139 842 crshr \$1;
#X obj 2393 1080 / 100;
#X msg 2217 898 fldr \$1;
#X msg 2286 963 smthr \$1;
#X obj 2139 519 loadbang;
#X obj 2315 1028 tgl 25 0 empty empty empty 17 7 0 10 #191919 #ffffff #ffffff 0 1;
#X msg 2315 1059 lmtr \$1;
#X msg 2139 638 512;
#X msg 2217 638 1;
#X msg 2356 638 50;
#X obj 2139 548 bng 25 250 50 0 empty empty empty 17 7 0 10 #191919 #ffffff #ffffff;
#X msg 2393 1264 mix \$1;
#X obj 1935 1379 throw~ L;
#X obj 2067 1379 throw~ R;
#X obj 1935 1339 wstd.cmpnnts/manglr_st;
#X obj 2056 718 r Low_Sqnc @hv_param 0 5 0 int;
#X obj 2139 778 r Low_Crshr @hv_param 2 512 512 int;
#X obj 2217 842 r Low_Fldr @hv_param 1 13.37 1;
#X obj 2286 898 r Low_Smthr @hv_param 1 13.37 1;
#X obj 2315 999 r Low_Lmtr @hv_param 0 1 1 bool;
#X obj 2393 1051 r Low_Mix @hv_param 0 100 50;
#X obj 2001 1299 catch~ LowR;
#X obj 1935 1269 catch~ LowL;
#X connect 0 0 2 0;
#X connect 1 0 45 0;
#X connect 2 0 56 2;
#X connect 3 0 8 0;
#X connect 4 0 6 0;
#X connect 5 0 9 0;
#X connect 6 0 56 2;
#X connect 7 0 1 0;
#X connect 8 0 56 2;
#X connect 9 0 56 2;
#X connect 10 0 16 0;
#X connect 11 0 12 0;
#X connect 12 0 56 2;
#X connect 13 0 4 0;
#X connect 14 0 3 0;
#X connect 14 0 5 0;
#X connect 14 0 11 0;
#X connect 15 0 7 0;
#X connect 16 0 13 0;
#X connect 16 0 14 0;
#X connect 16 0 15 0;
#X connect 18 0 31 0;
#X connect 18 1 31 1;
#X connect 19 0 20 0;
#X connect 20 0 31 2;
#X connect 21 0 22 0;
#X connect 22 0 31 2;
#X connect 23 0 24 0;
#X connect 24 0 31 2;
#X connect 25 0 31 2;
#X connect 26 0 31 2;
#X connect 27 0 19 0;
#X connect 28 0 21 0;
#X connect 29 0 23 0;
#X connect 30 0 25 0;
#X connect 30 0 35 0;
#X connect 31 0 52 0;
#X connect 31 1 53 0;
#X connect 31 2 38 0;
#X connect 31 3 39 0;
#X connect 31 4 40 0;
#X connect 31 5 41 0;
#X connect 32 0 34 0;
#X connect 32 0 33 0;
#X connect 33 0 30 0;
#X connect 34 0 19 0;
#X connect 34 0 21 0;
#X connect 34 0 23 0;
#X connect 35 0 36 0;
#X connect 36 0 26 0;
#X connect 37 0 30 0;
#X connect 43 0 42 0;
#X connect 44 0 42 1;
#X connect 45 0 56 2;
#X connect 46 0 0 0;
#X connect 47 0 4 0;
#X connect 48 0 3 0;
#X connect 49 0 5 0;
#X connect 50 0 11 0;
#X connect 51 0 7 0;
#X connect 56 0 54 0;
#X connect 56 1 55 0;
#X connect 57 0 56 0;
#X connect 58 0 56 1;
#X connect 59 0 61 0;
#X connect 60 0 76 0;
#X connect 61 0 79 2;
#X connect 62 0 67 0;
#X connect 63 0 65 0;
#X connect 64 0 68 0;
#X connect 65 0 79 2;
#X connect 66 0 60 0;
#X connect 67 0 79 2;
#X connect 68 0 79 2;
#X connect 69 0 75 0;
#X connect 70 0 71 0;
#X connect 71 0 79 2;
#X connect 72 0 63 0;
#X connect 73 0 62 0;
#X connect 73 0 64 0;
#X connect 73 0 70 0;
#X connect 74 0 66 0;
#X connect 75 0 72 0;
#X connect 75 0 73 0;
#X connect 75 0 74 0;
#X connect 76 0 79 2;
#X connect 79 0 77 0;
#X connect 79 1 78 0;
#X connect 80 0 59 0;
#X connect 81 0 63 0;
#X connect 82 0 62 0;
#X connect 83 0 64 0;
#X connect 84 0 70 0;
#X connect 85 0 66 0;
#X connect 86 0 79 0;
#X connect 87 0 79 1;
#X connect 88 0 90 0;
#X connect 89 0 105 0;
#X connect 90 0 108 2;
#X connect 91 0 96 0;
#X connect 92 0 94 0;
#X connect 93 0 97 0;
#X connect 94 0 108 2;
#X connect 95 0 89 0;
#X connect 96 0 108 2;
#X connect 97 0 108 2;
#X connect 98 0 104 0;
#X connect 99 0 100 0;
#X connect 100 0 108 2;
#X connect 101 0 92 0;
#X connect 102 0 91 0;
#X connect 102 0 93 0;
#X connect 102 0 99 0;
#X connect 103 0 95 0;
#X connect 104 0 101 0;
#X connect 104 0 102 0;
#X connect 104 0 103 0;
#X connect 105 0 108 2;
#X connect 108 0 106 0;
#X connect 108 1 107 0;
#X connect 109 0 88 0;
#X connect 110 0 92 0;
#X connect 111 0 91 0;
#X connect 112 0 93 0;
#X connect 113 0 99 0;
#X connect 114 0 95 0;
#X connect 115 0 108 1;
#X connect 116 0 108 0;
